<?xml version="1.0" standalone="no"?><!DOCTYPE svg PUBLIC "-//W3C//DTD SVG 1.1//EN" "http://www.w3.org/Graphics/SVG/1.1/DTD/svg11.dtd"><svg t="1684139648538" class="icon" viewBox="0 0 1024 1024" version="1.1" xmlns="http://www.w3.org/2000/svg" p-id="8714" xmlns:xlink="http://www.w3.org/1999/xlink" width="200" height="200"><path d="M128 384v469.333333c0 23.616 19.072 42.666667 42.666667 42.666667h682.666666c23.488 0 42.666667-19.157333 42.666667-42.666667V384c0-23.616-19.072-42.666667-42.666667-42.666667H170.666667c-23.488 0-42.666667 19.157333-42.666667 42.666667z m-42.666667 0c0-47.146667 38.314667-85.333333 85.333334-85.333333h682.666666c47.146667 0 85.333333 38.122667 85.333334 85.333333v469.333333c0 47.146667-38.314667 85.333333-85.333334 85.333334H170.666667c-47.146667 0-85.333333-38.122667-85.333334-85.333334V384z m256-85.333333V177.770667c0-1.664 8.128-7.104 21.205334-7.104h298.922666c13.162667 0 21.205333 5.376 21.205334 7.104V298.666667h42.666666V177.770667C725.333333 147.968 695.402667 128 661.461333 128H362.538667C328.682667 128 298.666667 148.053333 298.666667 177.770667V298.666667h42.666666z m341.333334 170.666666c0-11.776 9.472-21.333333 21.333333-21.333333 11.776 0 21.333333 9.493333 21.333333 21.333333v298.666667c0 11.776-9.472 21.333333-21.333333 21.333333-11.776 0-21.333333-9.493333-21.333333-21.333333V469.333333z m-384 0c0-11.776 9.472-21.333333 21.333333-21.333333 11.776 0 21.333333 9.493333 21.333333 21.333333v298.666667c0 11.776-9.472 21.333333-21.333333 21.333333-11.776 0-21.333333-9.493333-21.333333-21.333333V469.333333z" fill="#3D3D3D" p-id="8715"></path></svg>