<?xml version="1.0" standalone="no"?><!DOCTYPE svg PUBLIC "-//W3C//DTD SVG 1.1//EN" "http://www.w3.org/Graphics/SVG/1.1/DTD/svg11.dtd"><svg t="1684940481200" class="icon" viewBox="0 0 1024 1024" version="1.1" xmlns="http://www.w3.org/2000/svg" p-id="1359" xmlns:xlink="http://www.w3.org/1999/xlink" width="200" height="200"><path d="M640 213.333333V147.626667A63.146667 63.146667 0 0 0 576 85.333333h-341.333333A63.146667 63.146667 0 0 0 170.666667 147.626667V896a21.333333 21.333333 0 0 0 42.666666 0V147.626667A21.333333 21.333333 0 0 1 234.666667 128h341.333333a21.333333 21.333333 0 0 1 21.333333 20.906667V213.333333a234.24 234.24 0 0 0-213.333333 234.666667v12.8a9.813333 9.813333 0 0 0 9.386667 8.533333h450.133333a9.813333 9.813333 0 0 0 9.386667-8.533333v-12.8A234.24 234.24 0 0 0 640 213.333333z m-213.333333 213.333334a192 192 0 0 1 384 0z" p-id="1360"></path><path d="M490.666667 512a21.333333 21.333333 0 0 0-21.333334 21.333333v42.666667a21.333333 21.333333 0 0 0 42.666667 0v-42.666667a21.333333 21.333333 0 0 0-21.333333-21.333333zM490.666667 640a21.333333 21.333333 0 0 0-21.333334 21.333333v42.666667a21.333333 21.333333 0 0 0 42.666667 0v-42.666667a21.333333 21.333333 0 0 0-21.333333-21.333333zM618.666667 512a21.333333 21.333333 0 0 0-21.333334 21.333333v42.666667a21.333333 21.333333 0 0 0 42.666667 0v-42.666667a21.333333 21.333333 0 0 0-21.333333-21.333333zM618.666667 640a21.333333 21.333333 0 0 0-21.333334 21.333333v42.666667a21.333333 21.333333 0 0 0 42.666667 0v-42.666667a21.333333 21.333333 0 0 0-21.333333-21.333333zM746.666667 512a21.333333 21.333333 0 0 0-21.333334 21.333333v42.666667a21.333333 21.333333 0 0 0 42.666667 0v-42.666667a21.333333 21.333333 0 0 0-21.333333-21.333333zM746.666667 640a21.333333 21.333333 0 0 0-21.333334 21.333333v42.666667a21.333333 21.333333 0 0 0 42.666667 0v-42.666667a21.333333 21.333333 0 0 0-21.333333-21.333333z" p-id="1361"></path></svg>