<?xml version="1.0" standalone="no"?><!DOCTYPE svg PUBLIC "-//W3C//DTD SVG 1.1//EN" "http://www.w3.org/Graphics/SVG/1.1/DTD/svg11.dtd"><svg t="1684940519030" class="icon" viewBox="0 0 1024 1024" version="1.1" xmlns="http://www.w3.org/2000/svg" p-id="1638" xmlns:xlink="http://www.w3.org/1999/xlink" width="200" height="200"><path d="M148.053333 618.666667c27.306667 0 42.666667 15.786667 58.026667 35.413333a109.653333 109.653333 0 0 0 87.466667 49.92 111.36 111.36 0 0 0 87.893333-49.92c16.64-19.626667 30.293333-35.413333 57.6-35.413333s42.666667 15.786667 57.6 35.413333a110.08 110.08 0 0 0 87.893333 49.92 111.36 111.36 0 0 0 87.893334-49.92c16.64-19.626667 30.293333-35.413333 57.6-35.413333s42.666667 15.786667 58.026666 35.413333a110.08 110.08 0 0 0 87.893334 49.92 21.333333 21.333333 0 0 0 0-42.666667c-27.733333 0-42.666667-15.786667-58.026667-35.413333a110.08 110.08 0 0 0-87.893333-49.92 111.36 111.36 0 0 0-87.893334 49.92c-16.64 19.626667-30.293333 35.413333-57.6 35.413333s-42.666667-15.786667-57.6-35.413333a111.36 111.36 0 0 0-87.893333-49.92 111.36 111.36 0 0 0-87.893333 49.92c-16.64 19.626667-30.293333 35.413333-57.6 35.413333s-42.666667-15.786667-57.6-35.413333a110.08 110.08 0 0 0-87.893334-49.92 21.333333 21.333333 0 0 0 0 42.666667zM875.946667 810.666667c-27.733333 0-42.666667-15.786667-58.026667-35.413334A110.08 110.08 0 0 0 730.026667 725.333333a111.36 111.36 0 0 0-87.893334 49.92c-16.64 19.626667-30.293333 35.413333-57.6 35.413334s-42.666667-15.786667-57.6-35.413334A111.36 111.36 0 0 0 439.04 725.333333a111.36 111.36 0 0 0-87.893333 49.92c-16.64 19.626667-30.293333 35.413333-57.6 35.413334s-42.666667-15.786667-57.6-35.413334A110.08 110.08 0 0 0 148.053333 725.333333a21.333333 21.333333 0 0 0 0 42.666667c27.306667 0 42.666667 15.786667 58.026667 35.413333A109.653333 109.653333 0 0 0 293.546667 853.333333a111.36 111.36 0 0 0 87.893333-49.92c16.64-19.626667 30.293333-35.413333 57.6-35.413333s42.666667 15.786667 57.6 35.413333A110.08 110.08 0 0 0 584.533333 853.333333a111.36 111.36 0 0 0 87.893334-49.92c16.64-19.626667 30.293333-35.413333 57.6-35.413333s42.666667 15.786667 58.026666 35.413333A110.08 110.08 0 0 0 875.946667 853.333333a21.333333 21.333333 0 0 0 0-42.666666zM704 128a170.666667 170.666667 0 0 0-170.666667 170.666667v85.333333h-341.333333V298.666667a128 128 0 0 1 256 0 21.333333 21.333333 0 0 0 42.666667 0 170.666667 170.666667 0 0 0-341.333334 0v234.666666a21.333333 21.333333 0 0 0 42.666667 0V426.666667h341.333333v106.666666a21.333333 21.333333 0 0 0 42.666667 0V298.666667a128 128 0 0 1 256 0 21.333333 21.333333 0 0 0 42.666667 0 170.666667 170.666667 0 0 0-170.666667-170.666667z" p-id="1639"></path></svg>