<?xml version="1.0" standalone="no"?><!DOCTYPE svg PUBLIC "-//W3C//DTD SVG 1.1//EN" "http://www.w3.org/Graphics/SVG/1.1/DTD/svg11.dtd"><svg t="1684940748781" class="icon" viewBox="0 0 1024 1024" version="1.1" xmlns="http://www.w3.org/2000/svg" p-id="2615" xmlns:xlink="http://www.w3.org/1999/xlink" width="200" height="200"><path d="M887.466667 256H682.666667V136.533333a8.533333 8.533333 0 0 0-8.533334-8.533333H349.866667a8.533333 8.533333 0 0 0-8.533334 8.533333V256H136.533333a8.533333 8.533333 0 0 0-8.533333 8.533333v622.933334a8.533333 8.533333 0 0 0 8.533333 8.533333h750.933334a8.533333 8.533333 0 0 0 8.533333-8.533333V264.533333a8.533333 8.533333 0 0 0-8.533333-8.533333zM384 170.666667h256v85.333333H384z m469.333333 682.666666H170.666667V426.666667h682.666666z m0-469.333333H170.666667V298.666667h682.666666z" p-id="2616"></path><path d="M392.533333 661.333333h98.133334v98.133334a8.533333 8.533333 0 0 0 8.533333 8.533333h25.6a8.533333 8.533333 0 0 0 8.533333-8.533333v-98.133334h98.133334a8.533333 8.533333 0 0 0 8.533333-8.533333v-25.6a8.533333 8.533333 0 0 0-8.533333-8.533333h-98.133334v-98.133334a8.533333 8.533333 0 0 0-8.533333-8.533333h-25.6a8.533333 8.533333 0 0 0-8.533333 8.533333v98.133334H392.533333a8.533333 8.533333 0 0 0-8.533333 8.533333v25.6a8.533333 8.533333 0 0 0 8.533333 8.533333z" p-id="2617"></path></svg>