<?xml version="1.0" standalone="no"?><!DOCTYPE svg PUBLIC "-//W3C//DTD SVG 1.1//EN" "http://www.w3.org/Graphics/SVG/1.1/DTD/svg11.dtd"><svg t="1684940639962" class="icon" viewBox="0 0 1024 1024" version="1.1" xmlns="http://www.w3.org/2000/svg" p-id="2336" xmlns:xlink="http://www.w3.org/1999/xlink" width="200" height="200"><path d="M886.613333 584.533333l-16.213333-23.04-9.813333-13.653333-172.8-242.346667-5.12-3.84V136.533333a8.533333 8.533333 0 0 0-8.533334-8.533333H349.866667a8.533333 8.533333 0 0 0-8.533334 8.533333v165.12l-5.12 3.84-170.666666 242.346667-9.813334 13.653333-16.213333 23.04a23.893333 23.893333 0 0 0-5.12 9.813334v79.786666a8.533333 8.533333 0 0 0 8.533333 8.533334H883.2a8.533333 8.533333 0 0 0 8.533333-8.533334v-79.786666a23.893333 23.893333 0 0 0-5.12-9.813334zM384 170.666667h256v128H384z m-168.106667 377.173333L358.4 348.16A17.493333 17.493333 0 0 1 371.626667 341.333333h280.746666a17.493333 17.493333 0 0 1 13.226667 6.826667l142.506667 199.68c2.56 3.84 0 6.826667-3.413334 6.826667H219.306667c-5.973333 0-5.973333-2.986667-3.413334-6.826667z m633.6 85.333333a8.533333 8.533333 0 0 1-8.533333 8.533334H183.04a8.533333 8.533333 0 0 1-8.533333-8.533334v-25.6a8.533333 8.533333 0 0 1 8.533333-8.533333h657.92a8.533333 8.533333 0 0 1 8.533333 8.533333zM804.693333 732.16a20.906667 20.906667 0 0 0-29.866666 0l-36.693334 34.133333a30.72 30.72 0 0 0-9.386666 20.48 33.28 33.28 0 0 0 8.106666 21.76l22.613334 23.893334-27.733334 28.16a20.48 20.48 0 0 0 0 29.866666 20.48 20.48 0 0 0 29.866667 0l36.693333-36.266666a30.72 30.72 0 0 0 0-42.666667l-22.186666-23.466667 26.88-25.6a20.906667 20.906667 0 0 0 1.706666-30.293333zM634.026667 732.16a20.906667 20.906667 0 0 0-29.866667 0l-36.693333 34.133333a30.72 30.72 0 0 0-9.386667 20.48 33.28 33.28 0 0 0 8.106667 21.76l22.613333 23.893334-27.733333 28.16a20.48 20.48 0 0 0 0 29.866666 20.48 20.48 0 0 0 29.866666 0l36.693334-36.266666a30.72 30.72 0 0 0 0-42.666667l-22.186667-23.466667 26.88-25.6a20.906667 20.906667 0 0 0 1.706667-30.293333zM463.36 732.16a20.906667 20.906667 0 0 0-29.866667 0l-36.693333 34.133333a30.72 30.72 0 0 0-9.386667 20.48 33.28 33.28 0 0 0 8.106667 21.76l22.613333 23.893334-27.733333 28.16a20.48 20.48 0 0 0 0 29.866666 20.48 20.48 0 0 0 29.866667 0l36.693333-36.266666a30.72 30.72 0 0 0 0-42.666667l-22.186667-23.466667 26.88-25.6a20.906667 20.906667 0 0 0 1.706667-30.293333zM292.693333 732.16a20.906667 20.906667 0 0 0-29.866666 0l-36.693334 34.133333a30.72 30.72 0 0 0-9.386666 20.48 33.28 33.28 0 0 0 8.106666 21.76l22.613334 23.893334-27.733334 28.16a20.48 20.48 0 0 0 0 29.866666 20.48 20.48 0 0 0 29.866667 0l36.693333-37.12a30.72 30.72 0 0 0 0-42.666666l-22.186666-23.466667 26.88-25.6a20.906667 20.906667 0 0 0 1.706666-29.44z" p-id="2337"></path></svg>