<?xml version="1.0" standalone="no"?><!DOCTYPE svg PUBLIC "-//W3C//DTD SVG 1.1//EN" "http://www.w3.org/Graphics/SVG/1.1/DTD/svg11.dtd"><svg t="1684940553046" class="icon" viewBox="0 0 1024 1024" version="1.1" xmlns="http://www.w3.org/2000/svg" p-id="1777" xmlns:xlink="http://www.w3.org/1999/xlink" width="200" height="200"><path d="M896 550.4a8.533333 8.533333 0 0 0-10.666667-5.973333l-177.92 49.066666a27.306667 27.306667 0 0 1-15.36-2.133333l-130.986666-74.666667c-3.84-2.56-3.84-6.4 0-8.533333l131.84-73.386667a23.893333 23.893333 0 0 1 15.36 0l177.493333 51.2a8.533333 8.533333 0 0 0 10.666667-5.973333l6.826666-24.32a8.533333 8.533333 0 0 0-5.546666-10.666667l-136.533334-39.253333c-4.693333 0-5.12-4.266667 0-6.826667l125.866667-69.973333a8.106667 8.106667 0 0 0 2.986667-11.52l-12.373334-22.186667a8.533333 8.533333 0 0 0-11.52-3.413333l-125.013333 68.266667c-3.84 2.133333-6.4 0-5.12-4.266667l38.4-136.533333a8.533333 8.533333 0 0 0-6.4-10.666667l-24.746667-6.826667a8.533333 8.533333 0 0 0-10.666666 5.973334L682.666667 384a23.466667 23.466667 0 0 1-9.813334 12.373333l-133.12 73.813334c-3.84 2.56-7.253333 0-7.253333-4.266667V314.88a23.04 23.04 0 0 1 6.826667-16.213333l130.986666-128a8.96 8.96 0 0 0 0-12.373334l-17.92-17.92a8.106667 8.106667 0 0 0-11.946666 0l-101.12 99.84c-3.413333 3.413333-5.973333 0-5.973334-2.56V93.866667a8.533333 8.533333 0 0 0-8.533333-8.533334h-25.6a8.533333 8.533333 0 0 0-8.533333 8.533334v143.786666c0 4.693333-2.56 5.973333-5.973334 2.56L384 140.373333a8.106667 8.106667 0 0 0-11.946667 0l-17.92 17.92a8.96 8.96 0 0 0 0 12.373334l130.986667 128a23.04 23.04 0 0 1 5.973333 14.506666v151.893334c0 4.693333-3.413333 6.4-7.253333 4.266666l-132.266667-73.813333A21.333333 21.333333 0 0 1 341.333333 384L294.4 204.8a8.96 8.96 0 0 0-10.666667-5.973333l-24.746666 6.826666a8.533333 8.533333 0 0 0-5.973334 10.24l36.693334 137.386667c0 4.693333 0 6.4-5.12 3.84L159.573333 285.866667a8.533333 8.533333 0 0 0-11.52 2.986666l-12.8 22.186667a8.96 8.96 0 0 0 3.413334 11.946667l124.586666 71.253333c4.266667 2.56 3.84 5.546667 0 6.4l-137.386666 37.973333a9.386667 9.386667 0 0 0-5.973334 10.666667l8.106667 24.32a8.533333 8.533333 0 0 0 10.666667 5.973333l177.92-49.066666a27.306667 27.306667 0 0 1 15.36 2.133333l130.986666 74.666667c3.84 2.56 3.84 6.4 0 8.533333l-133.546666 73.386667a23.893333 23.893333 0 0 1-15.36 0L136.533333 539.733333a8.533333 8.533333 0 0 0-10.666666 5.973334l-6.826667 24.32a8.533333 8.533333 0 0 0 5.546667 10.666666l136.533333 39.253334c4.693333 0 5.12 4.266667 0 6.826666l-125.013333 69.973334a8.106667 8.106667 0 0 0-2.986667 11.52l12.373333 22.186666a8.533333 8.533333 0 0 0 11.52 3.413334l125.866667-69.973334c3.84-2.133333 6.4 0 5.12 4.266667l-38.4 136.533333a8.533333 8.533333 0 0 0 5.546667 10.666667l24.746666 6.826667a8.533333 8.533333 0 0 0 10.666667-5.973334L341.333333 640a23.466667 23.466667 0 0 1 9.813334-12.373333l132.266666-72.96c3.84-2.56 7.253333 0 7.253334 4.266666v152.32a23.04 23.04 0 0 1-5.973334 14.506667L353.706667 853.333333a8.96 8.96 0 0 0 0 12.373334l17.92 17.92a8.106667 8.106667 0 0 0 11.946666 0l101.12-99.84c3.413333-3.413333 5.973333-2.133333 5.973334 2.56v143.786666a8.533333 8.533333 0 0 0 8.533333 8.533334h25.6a8.533333 8.533333 0 0 0 8.533333-8.533334v-143.786666c0-4.693333 2.56-5.973333 5.973334-2.56L640 883.626667a8.106667 8.106667 0 0 0 11.946667 0l17.92-17.92a8.96 8.96 0 0 0 0-12.373334l-130.986667-128a23.04 23.04 0 0 1-5.973333-14.506666v-153.6c0-4.693333 3.413333-6.4 7.253333-4.266667l131.84 75.52A21.333333 21.333333 0 0 1 682.666667 640l46.933333 179.2a8.96 8.96 0 0 0 10.666667 5.973333l24.746666-6.826666a8.533333 8.533333 0 0 0 5.973334-10.24l-36.693334-137.386667c0-4.693333 0-6.4 5.12-3.84l125.013334 71.253333a8.533333 8.533333 0 0 0 11.52-2.986666l12.8-22.186667a8.96 8.96 0 0 0-3.413334-11.946667l-124.586666-71.253333c-4.266667-2.56-3.84-5.546667 0-6.4l137.386666-37.973333a9.386667 9.386667 0 0 0 5.973334-10.666667z" p-id="1778"></path></svg>