<?xml version="1.0" standalone="no"?><!DOCTYPE svg PUBLIC "-//W3C//DTD SVG 1.1//EN" "http://www.w3.org/Graphics/SVG/1.1/DTD/svg11.dtd"><svg t="1684940504183" class="icon" viewBox="0 0 1024 1024" version="1.1" xmlns="http://www.w3.org/2000/svg" p-id="1499" xmlns:xlink="http://www.w3.org/1999/xlink" width="200" height="200"><path d="M148.053333 618.666667c27.306667 0 42.666667 15.786667 58.026667 35.413333a109.653333 109.653333 0 0 0 87.466667 49.92 111.36 111.36 0 0 0 87.893333-49.92c16.64-19.626667 30.293333-35.413333 57.6-35.413333s42.666667 15.786667 57.6 35.413333a110.08 110.08 0 0 0 87.893333 49.92 111.36 111.36 0 0 0 87.893334-49.92c16.64-19.626667 30.293333-35.413333 57.6-35.413333s42.666667 15.786667 58.026666 35.413333a110.08 110.08 0 0 0 87.893334 49.92 21.333333 21.333333 0 0 0 0-42.666667c-27.733333 0-42.666667-15.786667-58.026667-35.413333a110.08 110.08 0 0 0-87.893333-49.92 111.36 111.36 0 0 0-87.893334 49.92c-16.64 19.626667-30.293333 35.413333-57.6 35.413333s-42.666667-15.786667-57.6-35.413333a111.36 111.36 0 0 0-87.893333-49.92 111.36 111.36 0 0 0-87.893333 49.92c-16.64 19.626667-30.293333 35.413333-57.6 35.413333s-42.666667-15.786667-57.6-35.413333a110.08 110.08 0 0 0-87.893334-49.92 21.333333 21.333333 0 0 0 0 42.666667zM875.946667 810.666667c-27.733333 0-42.666667-15.786667-58.026667-35.413334A110.08 110.08 0 0 0 730.026667 725.333333a111.36 111.36 0 0 0-87.893334 49.92c-16.64 19.626667-30.293333 35.413333-57.6 35.413334s-42.666667-15.786667-57.6-35.413334A111.36 111.36 0 0 0 439.04 725.333333a111.36 111.36 0 0 0-87.893333 49.92c-16.64 19.626667-30.293333 35.413333-57.6 35.413334s-42.666667-15.786667-57.6-35.413334A110.08 110.08 0 0 0 148.053333 725.333333a21.333333 21.333333 0 0 0 0 42.666667c27.306667 0 42.666667 15.786667 58.026667 35.413333A109.653333 109.653333 0 0 0 293.546667 853.333333a111.36 111.36 0 0 0 87.893333-49.92c16.64-19.626667 30.293333-35.413333 57.6-35.413333s42.666667 15.786667 57.6 35.413333A110.08 110.08 0 0 0 584.533333 853.333333a111.36 111.36 0 0 0 87.893334-49.92c16.64-19.626667 30.293333-35.413333 57.6-35.413333s42.666667 15.786667 58.026666 35.413333A110.08 110.08 0 0 0 875.946667 853.333333a21.333333 21.333333 0 0 0 0-42.666666zM267.52 233.813333a47.786667 47.786667 0 0 1 49.92 52.48C322.133333 324.266667 273.493333 384 170.666667 469.333333v42.666667h200.106666v-53.333333H258.133333c76.373333-62.293333 114.346667-121.173333 113.493334-175.786667a98.133333 98.133333 0 0 0-101.546667-101.12A122.88 122.88 0 0 0 170.666667 236.373333l32.426666 38.826667a77.226667 77.226667 0 0 1 64.426667-41.386667zM537.173333 512h52.053334v-73.813333h48.213333V386.56h-48.213333V187.306667h-67.84l-119.04 213.333333v39.68h134.826666zM469.333333 386.56L538.453333 256v130.56zM717.226667 367.36a42.666667 42.666667 0 0 1 47.786666-49.066667c24.32 0 36.693333 12.373333 36.266667 38.4V512H853.333333V353.706667a77.226667 77.226667 0 0 0-82.773333-85.333334 66.133333 66.133333 0 0 0-53.333333 25.173334V170.666667h-52.053334v341.333333h52.053334z" p-id="1500"></path></svg>