<?xml version="1.0" standalone="no"?><!DOCTYPE svg PUBLIC "-//W3C//DTD SVG 1.1//EN" "http://www.w3.org/Graphics/SVG/1.1/DTD/svg11.dtd"><svg t="1684940708949" class="icon" viewBox="0 0 1024 1024" version="1.1" xmlns="http://www.w3.org/2000/svg" p-id="2475" xmlns:xlink="http://www.w3.org/1999/xlink" width="200" height="200"><path d="M490.666667 85.333333a21.333333 21.333333 0 0 0-21.333334 21.76V341.333333a101.546667 101.546667 0 0 1-106.666666 95.146667A101.546667 101.546667 0 0 1 256 341.333333V107.093333a21.333333 21.333333 0 1 0-42.666667 0V341.333333a141.653333 141.653333 0 0 0 128 136.533334V916.906667a21.333333 21.333333 0 1 0 42.666667 0V479.146667v-2.133334A141.653333 141.653333 0 0 0 512 341.333333V107.093333a21.333333 21.333333 0 0 0-21.333333-21.76z" p-id="2476"></path><path d="M362.666667 369.92a21.76 21.76 0 0 0 21.333333-22.186667V107.093333a21.333333 21.333333 0 1 0-42.666667 0v240.64a21.76 21.76 0 0 0 21.333334 22.186667zM787.2 89.6a32 32 0 0 0-37.12 12.8c-53.76 75.946667-176.213333 275.626667-156.16 482.56a52.48 52.48 0 0 0 52.053333 47.36H768v284.586667a21.333333 21.333333 0 1 0 42.666667 0V122.453333a34.56 34.56 0 0 0-23.466667-32.853333zM768 588.373333h-122.026667a9.386667 9.386667 0 0 1-9.813333-7.68c-16.64-173.226667 76.373333-343.893333 131.84-426.666666z" p-id="2477"></path></svg>