<?xml version="1.0" standalone="no"?><!DOCTYPE svg PUBLIC "-//W3C//DTD SVG 1.1//EN" "http://www.w3.org/Graphics/SVG/1.1/DTD/svg11.dtd"><svg t="1684940596188" class="icon" viewBox="0 0 1024 1024" version="1.1" xmlns="http://www.w3.org/2000/svg" p-id="2057" xmlns:xlink="http://www.w3.org/1999/xlink" width="200" height="200"><path d="M885.333333 343.893333l-149.76-82.346666a94.293333 94.293333 0 0 0-32.426666-5.546667H640V136.533333a8.533333 8.533333 0 0 0-8.533333-8.533333H392.533333a8.533333 8.533333 0 0 0-8.533333 8.533333V256H320a95.573333 95.573333 0 0 0-35.413333 7.253333L138.666667 343.893333a21.76 21.76 0 0 0-8.533334 28.586667 20.48 20.48 0 0 0 17.92 11.52 18.346667 18.346667 0 0 0 9.386667-2.56L298.666667 302.08A63.146667 63.146667 0 0 1 320 298.666667H384v384H320a21.333333 21.333333 0 0 0 0 42.666666H384v85.333334H234.666667a21.333333 21.333333 0 0 0 0 42.666666h554.666666a21.333333 21.333333 0 0 0 0-42.666666H640v-85.333334h64a21.333333 21.333333 0 0 0 0-42.666666H640V298.666667h63.146667a75.52 75.52 0 0 1 16.64 0l146.773333 80.64a19.626667 19.626667 0 0 0 29.44-6.826667 21.76 21.76 0 0 0-10.666667-28.586667zM426.666667 170.666667h170.666666v85.333333h-170.666666z m170.666666 640h-170.666666v-85.333334h170.666666z m0-128h-170.666666V298.666667h170.666666z" p-id="2058"></path></svg>