<?xml version="1.0" standalone="no"?><!DOCTYPE svg PUBLIC "-//W3C//DTD SVG 1.1//EN" "http://www.w3.org/Graphics/SVG/1.1/DTD/svg11.dtd"><svg t="1684940567468" class="icon" viewBox="0 0 1024 1024" version="1.1" xmlns="http://www.w3.org/2000/svg" p-id="1916" xmlns:xlink="http://www.w3.org/1999/xlink" width="200" height="200"><path d="M844.8 85.333333H179.2a8.533333 8.533333 0 0 0-8.533333 8.533334v836.266666a8.533333 8.533333 0 0 0 8.533333 8.533334h665.6a8.533333 8.533333 0 0 0 8.533333-8.533334V93.866667a8.533333 8.533333 0 0 0-8.533333-8.533334zM810.666667 896H213.333333V298.666667h597.333334z m0-640H213.333333V128h597.333334z" p-id="1917"></path><path d="M682.666667 170.666667m8.533333 0l68.266667 0q8.533333 0 8.533333 8.533333l0 25.6q0 8.533333-8.533333 8.533333l-68.266667 0q-8.533333 0-8.533333-8.533333l0-25.6q0-8.533333 8.533333-8.533333Z" p-id="1918"></path><path d="M512 810.666667a213.333333 213.333333 0 1 0-213.333333-213.333334 213.333333 213.333333 0 0 0 213.333333 213.333334z m0-384a170.666667 170.666667 0 1 1-170.666667 170.666666 170.666667 170.666667 0 0 1 170.666667-170.666666z" p-id="1919"></path></svg>