<?xml version="1.0" standalone="no"?><!DOCTYPE svg PUBLIC "-//W3C//DTD SVG 1.1//EN" "http://www.w3.org/Graphics/SVG/1.1/DTD/svg11.dtd"><svg t="1684940763216" class="icon" viewBox="0 0 1024 1024" version="1.1" xmlns="http://www.w3.org/2000/svg" p-id="2755" xmlns:xlink="http://www.w3.org/1999/xlink" width="200" height="200"><path d="M512 85.333333a426.666667 426.666667 0 1 0 426.666667 426.666667A426.666667 426.666667 0 0 0 512 85.333333z m0 810.666667a384 384 0 1 1 384-384 384 384 0 0 1-384 384z" p-id="2756"></path><path d="M533.333333 298.666667H392.533333a8.533333 8.533333 0 0 0-8.533333 8.533333v452.266667a8.533333 8.533333 0 0 0 8.533333 8.533333h25.6a8.533333 8.533333 0 0 0 8.533334-8.533333V597.333333h106.666666a149.333333 149.333333 0 0 0 0-298.666666z m0 256H426.666667V341.333333h106.666666a106.666667 106.666667 0 0 1 0 213.333334z" p-id="2757"></path></svg>