<?xml version="1.0" standalone="no"?><!DOCTYPE svg PUBLIC "-//W3C//DTD SVG 1.1//EN" "http://www.w3.org/Graphics/SVG/1.1/DTD/svg11.dtd"><svg t="1684940613665" class="icon" viewBox="0 0 1024 1024" version="1.1" xmlns="http://www.w3.org/2000/svg" p-id="2196" xmlns:xlink="http://www.w3.org/1999/xlink" width="200" height="200"><path d="M669.013333 673.28a18.773333 18.773333 0 0 0-23.466666 12.373333 244.48 244.48 0 1 1-269.653334-307.2 18.773333 18.773333 0 0 0 16.213334-20.906666 19.2 19.2 0 0 0-21.333334-16.213334 278.613333 278.613333 0 0 0 40.106667 554.666667A283.733333 283.733333 0 0 0 682.666667 696.32a18.346667 18.346667 0 0 0-13.653334-23.04z" p-id="2197"></path><path d="M892.586667 820.053333l-174.933334-260.693333a8.106667 8.106667 0 0 0-7.68-4.693333H512v-128h192a21.333333 21.333333 0 0 0 0-42.666667H512V341.333333a107.093333 107.093333 0 0 0 80.64-137.386666A104.533333 104.533333 0 0 0 520.533333 132.266667 106.666667 106.666667 0 1 0 469.333333 341.333333v247.466667a8.533333 8.533333 0 0 0 8.533334 8.533333h213.333333l164.266667 246.613334a22.186667 22.186667 0 0 0 17.92 9.386666 24.32 24.32 0 0 0 11.946666-3.413333 21.76 21.76 0 0 0 7.253334-29.866667zM426.666667 234.666667A64 64 0 1 1 490.666667 298.666667 64 64 0 0 1 426.666667 234.666667z" p-id="2198"></path></svg>