<?xml version="1.0" standalone="no"?><!DOCTYPE svg PUBLIC "-//W3C//DTD SVG 1.1//EN" "http://www.w3.org/Graphics/SVG/1.1/DTD/svg11.dtd"><svg t="1684940459252" class="icon" viewBox="0 0 1024 1024" version="1.1" xmlns="http://www.w3.org/2000/svg" p-id="1219" xmlns:xlink="http://www.w3.org/1999/xlink" width="200" height="200"><path d="M512 768a85.333333 85.333333 0 1 0 85.333333 85.333333 85.333333 85.333333 0 0 0-85.333333-85.333333z m0 128a42.666667 42.666667 0 1 1 42.666667-42.666667 42.666667 42.666667 0 0 1-42.666667 42.666667zM341.333333 620.8l30.72 30.72a209.066667 209.066667 0 0 1 280.746667 0l30.72-30.72a256 256 0 0 0-341.333333 0zM198.826667 478.72l30.293333 30.293333a384 384 0 0 1 565.76 0l30.293333-30.293333a426.666667 426.666667 0 0 0-626.346666 0z" p-id="1220"></path><path d="M512 128A597.333333 597.333333 0 0 0 58.026667 337.92l30.293333 30.293333a554.666667 554.666667 0 0 1 847.36 0l30.293333-30.293333A597.333333 597.333333 0 0 0 512 128z" p-id="1221"></path></svg>